<svg width="800" height="600" viewBox="0 0 800 600" fill="none" xmlns="http://www.w3.org/2000/svg">
  <!-- Laptop Base -->
  <rect x="50" y="100" width="700" height="400" rx="20" fill="url(#gradient1)" stroke="#334155" stroke-width="2"/>
  
  <!-- Screen -->
  <rect x="80" y="130" width="640" height="340" rx="8" fill="#0f172a"/>
  
  <!-- Dashboard UI -->
  <!-- Header -->
  <rect x="100" y="150" width="600" height="40" rx="4" fill="#1e293b"/>
  <circle cx="120" cy="170" r="8" fill="#06b6d4"/>
  <rect x="140" y="162" width="120" height="16" rx="2" fill="#64748b"/>
  
  <!-- Metrics Cards -->
  <rect x="120" y="210" width="140" height="80" rx="8" fill="#1e293b" stroke="#334155"/>
  <rect x="280" y="210" width="140" height="80" rx="8" fill="#1e293b" stroke="#334155"/>
  <rect x="440" y="210" width="140" height="80" rx="8" fill="#1e293b" stroke="#334155"/>
  
  <!-- Performance Score -->
  <circle cx="190" cy="240" r="20" fill="none" stroke="#22c55e" stroke-width="4"/>
  <text x="190" y="245" text-anchor="middle" fill="#22c55e" font-family="Arial" font-size="14" font-weight="bold">98</text>
  <text x="190" y="265" text-anchor="middle" fill="#94a3b8" font-family="Arial" font-size="10">Performance</text>
  
  <!-- Accessibility Score -->
  <circle cx="350" cy="240" r="20" fill="none" stroke="#06b6d4" stroke-width="4"/>
  <text x="350" y="245" text-anchor="middle" fill="#06b6d4" font-family="Arial" font-size="14" font-weight="bold">96</text>
  <text x="350" y="265" text-anchor="middle" fill="#94a3b8" font-family="Arial" font-size="10">Accessibility</text>
  
  <!-- SEO Score -->
  <circle cx="510" cy="240" r="20" fill="none" stroke="#8b5cf6" stroke-width="4"/>
  <text x="510" y="245" text-anchor="middle" fill="#8b5cf6" font-family="Arial" font-size="14" font-weight="bold">100</text>
  <text x="510" y="265" text-anchor="middle" fill="#94a3b8" font-family="Arial" font-size="10">SEO</text>
  
  <!-- Chart Area -->
  <rect x="120" y="310" width="460" height="120" rx="8" fill="#1e293b" stroke="#334155"/>
  
  <!-- Chart Lines -->
  <polyline points="140,400 200,380 260,360 320,340 380,330 440,320 500,310 560,305" 
           fill="none" stroke="#06b6d4" stroke-width="3"/>
  <polyline points="140,410 200,395 260,385 320,375 380,365 440,355 500,345 560,340" 
           fill="none" stroke="#22c55e" stroke-width="3"/>
  
  <!-- Gradient Definitions -->
  <defs>
    <linearGradient id="gradient1" x1="0%" y1="0%" x2="100%" y2="100%">
      <stop offset="0%" style="stop-color:#475569;stop-opacity:1" />
      <stop offset="100%" style="stop-color:#334155;stop-opacity:1" />
    </linearGradient>
  </defs>
  
  <!-- Laptop Keyboard -->
  <rect x="50" y="500" width="700" height="80" rx="20" fill="url(#gradient1)" stroke="#334155" stroke-width="2"/>
  
  <!-- Keyboard Keys (simplified) -->
  <g fill="#64748b" opacity="0.8">
    <rect x="80" y="520" width="30" height="20" rx="2"/>
    <rect x="120" y="520" width="30" height="20" rx="2"/>
    <rect x="160" y="520" width="30" height="20" rx="2"/>
    <rect x="200" y="520" width="30" height="20" rx="2"/>
    <rect x="240" y="520" width="30" height="20" rx="2"/>
    <rect x="280" y="520" width="30" height="20" rx="2"/>
    <rect x="320" y="520" width="30" height="20" rx="2"/>
    <rect x="360" y="520" width="30" height="20" rx="2"/>
    <rect x="400" y="520" width="30" height="20" rx="2"/>
    <rect x="440" y="520" width="30" height="20" rx="2"/>
    <rect x="480" y="520" width="30" height="20" rx="2"/>
    <rect x="520" y="520" width="30" height="20" rx="2"/>
    <rect x="560" y="520" width="30" height="20" rx="2"/>
    <rect x="600" y="520" width="30" height="20" rx="2"/>
    <rect x="640" y="520" width="30" height="20" rx="2"/>
    <rect x="680" y="520" width="30" height="20" rx="2"/>
  </g>
</svg>
